<svg width="34" height="35" viewBox="0 0 34 35" fill="none" xmlns="http://www.w3.org/2000/svg">
<path id="Vector" d="M17.1193 0.912003C7.95826 0.912003 0.53125 8.33898 0.53125 17.5C0.53125 26.661 7.95826 34.088 17.1193 34.088C26.2803 34.088 33.7073 26.661 33.7073 17.5C33.7073 8.33898 26.2813 0.912003 17.1193 0.912003ZM17.4633 26.731C15.8323 26.731 14.2223 26.319 12.7803 25.537L7.4173 26.974L8.84729 21.639C8.03729 20.178 7.61127 18.541 7.61127 16.88C7.61127 11.448 12.0303 7.02901 17.4623 7.02901C22.8943 7.02901 27.3133 11.448 27.3133 16.88C27.3143 22.312 22.8953 26.731 17.4633 26.731ZM17.4633 8.89101C13.0583 8.89101 9.47424 12.475 9.47424 16.88C9.47424 18.335 9.87827 19.767 10.6423 21.022L10.8492 21.362L10.0513 24.341L13.0473 23.538L13.3853 23.739C14.6253 24.478 16.0353 24.869 17.4633 24.869C21.8683 24.869 25.4523 21.285 25.4523 16.88C25.4523 12.475 21.8683 8.89101 17.4633 8.89101ZM22.1562 19.897C21.8593 20.619 21.1203 21.082 20.3713 21.224C19.6563 21.36 19.0653 21.132 18.4033 20.913C17.8123 20.718 17.2423 20.433 16.7123 20.109C15.6523 19.46 14.7373 18.591 14.0013 17.592C13.7763 17.286 13.5683 16.969 13.3763 16.641C13.1223 16.207 12.8963 15.75 12.7773 15.261C12.7283 15.058 12.7023 14.847 12.7003 14.637C12.6913 13.896 12.9743 13.148 13.5603 12.67C13.9003 12.393 14.4023 12.273 14.7833 12.488C15.1973 12.722 15.4133 13.313 15.6053 13.727C15.7553 14.051 15.9263 14.476 15.8643 14.84C15.8023 15.204 15.5143 15.511 15.2853 15.78C15.1303 15.962 15.1073 16.117 15.2363 16.314C15.9953 17.579 17.0493 18.498 18.4253 19.046C18.6123 19.121 18.7573 19.098 18.8793 18.948C19.1163 18.655 19.3503 18.081 19.7173 17.931C20.1953 17.736 20.7223 18.006 21.1283 18.249C21.5053 18.475 22.1373 18.752 22.2393 19.219C22.2883 19.445 22.2442 19.683 22.1562 19.897Z" fill="#009B4F"/>
</svg>
